<mxfile host="65bd71144e">
    <diagram name="Page-1" id="126189900481120">
        <mxGraphModel dx="1896" dy="1595" grid="1" gridSize="10" guides="1" tooltips="1" connect="1" arrows="1" fold="1" page="1" pageScale="1" pageWidth="850" pageHeight="1100" math="1" shadow="0">
            <root>
                <mxCell id="0"/>
                <mxCell id="1" parent="0"/>
                <mxCell id="126189900482032" value="" style="whiteSpace=wrap;rounded=0;fillColor=#dae8fc;strokeColor=#6c8ebf;dashed=0;inherit=default;html=1;strokeWidth=0;" parent="1" vertex="1">
                    <mxGeometry y="20" width="120" height="20" as="geometry"/>
                </mxCell>
                <mxCell id="126189903986368" value="" style="whiteSpace=wrap;rounded=0;fillColor=none;strokeColor=none;dashed=0;inherit=default;html=1;strokeWidth=0;" parent="1" vertex="1">
                    <mxGeometry as="geometry"/>
                </mxCell>
                <mxCell id="126189900482464" value="" style="whiteSpace=wrap;rounded=0;fillColor=none;strokeColor=none;dashed=0;inherit=default;html=1;strokeWidth=0;" parent="1" vertex="1">
                    <mxGeometry y="40" as="geometry"/>
                </mxCell>
                <mxCell id="126189900482608" style="edgeStyle=orthogonalEdgeStyle;orthogonalLoop=1;rounded=0;jettySize=auto;" parent="1" source="126189900482464" target="126189903986368" edge="1">
                    <mxGeometry relative="1" as="geometry"/>
                </mxCell>
                <mxCell id="126189901609776" value="" style="whiteSpace=wrap;rounded=0;fillColor=none;strokeColor=none;dashed=0;inherit=default;html=1;strokeWidth=0;" parent="1" vertex="1">
                    <mxGeometry y="40" as="geometry"/>
                </mxCell>
                <mxCell id="126189900483328" value="" style="whiteSpace=wrap;rounded=0;fillColor=none;strokeColor=none;dashed=0;inherit=default;html=1;strokeWidth=0;" parent="1" vertex="1">
                    <mxGeometry x="360" y="40" as="geometry"/>
                </mxCell>
                <mxCell id="126189900483472" style="edgeStyle=orthogonalEdgeStyle;orthogonalLoop=1;rounded=0;jettySize=auto;endArrow=none;" parent="1" source="126189900483328" target="126189901609776" edge="1">
                    <mxGeometry relative="1" as="geometry"/>
                </mxCell>
                <mxCell id="126189900484336" value="0" style="text;whiteSpace=wrap;rounded=0;dashed=0;inherit=default;" parent="1" vertex="1">
                    <mxGeometry x="-5" y="40" as="geometry"/>
                </mxCell>
                <mxCell id="126189900484528" value="1" style="text;whiteSpace=wrap;rounded=0;dashed=0;inherit=default;" parent="1" vertex="1">
                    <mxGeometry x="35" y="40" as="geometry"/>
                </mxCell>
                <mxCell id="126189900484720" value="2" style="text;whiteSpace=wrap;rounded=0;dashed=0;inherit=default;" parent="1" vertex="1">
                    <mxGeometry x="75" y="40" as="geometry"/>
                </mxCell>
                <mxCell id="126189900484912" value="3" style="text;whiteSpace=wrap;rounded=0;dashed=0;inherit=default;" parent="1" vertex="1">
                    <mxGeometry x="115" y="40" as="geometry"/>
                </mxCell>
                <mxCell id="126189900485104" value="4" style="text;whiteSpace=wrap;rounded=0;dashed=0;inherit=default;" parent="1" vertex="1">
                    <mxGeometry x="155" y="40" as="geometry"/>
                </mxCell>
                <mxCell id="126189900485296" value="5" style="text;whiteSpace=wrap;rounded=0;dashed=0;inherit=default;" parent="1" vertex="1">
                    <mxGeometry x="195" y="40" as="geometry"/>
                </mxCell>
                <mxCell id="126189900485488" value="6" style="text;whiteSpace=wrap;rounded=0;dashed=0;inherit=default;" parent="1" vertex="1">
                    <mxGeometry x="235" y="40" as="geometry"/>
                </mxCell>
                <mxCell id="126189900485680" value="7" style="text;whiteSpace=wrap;rounded=0;dashed=0;inherit=default;" parent="1" vertex="1">
                    <mxGeometry x="275" y="40" as="geometry"/>
                </mxCell>
                <mxCell id="126189900485872" value="8" style="text;whiteSpace=wrap;rounded=0;dashed=0;inherit=default;" parent="1" vertex="1">
                    <mxGeometry x="315" y="40" as="geometry"/>
                </mxCell>
                <mxCell id="126189900486064" value="9" style="text;whiteSpace=wrap;rounded=0;dashed=0;inherit=default;" parent="1" vertex="1">
                    <mxGeometry x="355" y="40" as="geometry"/>
                </mxCell>
                <mxCell id="126189900486208" value="$$\tau_1: T=0, C=[2,3]$$" style="text;whiteSpace=wrap;rounded=0;dashed=0;inherit=default;" parent="1" vertex="1">
                    <mxGeometry x="-160" y="15" width="120" height="40" as="geometry"/>
                </mxCell>
                <mxCell id="126189900481840" value="" style="whiteSpace=wrap;rounded=0;fillColor=#dae8fc;strokeColor=#6c8ebf;dashed=0;inherit=default;html=1;strokeWidth=0;" parent="1" vertex="1">
                    <mxGeometry x="320" y="20" width="120" height="20" as="geometry"/>
                </mxCell>
                <mxCell id="126189900486496" value="" style="whiteSpace=wrap;rounded=0;fillColor=none;strokeColor=none;dashed=0;inherit=default;html=1;strokeWidth=0;" parent="1" vertex="1">
                    <mxGeometry x="200" as="geometry"/>
                </mxCell>
                <mxCell id="126189900486832" value="" style="whiteSpace=wrap;rounded=0;fillColor=none;strokeColor=none;dashed=0;inherit=default;html=1;strokeWidth=0;" parent="1" vertex="1">
                    <mxGeometry x="200" y="40" as="geometry"/>
                </mxCell>
                <mxCell id="126189900486976" style="edgeStyle=orthogonalEdgeStyle;orthogonalLoop=1;rounded=0;jettySize=auto;" parent="1" source="126189900486832" target="126189900486496" edge="1">
                    <mxGeometry relative="1" as="geometry"/>
                </mxCell>
                <mxCell id="126189900487648" value="" style="whiteSpace=wrap;rounded=0;fillColor=#f8cecc;strokeColor=#b85450;dashed=0;inherit=default;html=1;strokeWidth=0;" parent="1" vertex="1">
                    <mxGeometry y="100" width="160" height="20" as="geometry"/>
                </mxCell>
                <mxCell id="126189900487840" value="" style="whiteSpace=wrap;rounded=0;fillColor=none;strokeColor=none;dashed=0;inherit=default;html=1;strokeWidth=0;" parent="1" vertex="1">
                    <mxGeometry y="80" as="geometry"/>
                </mxCell>
                <mxCell id="126189900488176" value="" style="whiteSpace=wrap;rounded=0;fillColor=none;strokeColor=none;dashed=0;inherit=default;html=1;strokeWidth=0;" parent="1" vertex="1">
                    <mxGeometry y="120" as="geometry"/>
                </mxCell>
                <mxCell id="126189900488320" style="edgeStyle=orthogonalEdgeStyle;orthogonalLoop=1;rounded=0;jettySize=auto;" parent="1" source="126189900488176" target="126189900487840" edge="1">
                    <mxGeometry relative="1" as="geometry"/>
                </mxCell>
                <mxCell id="126189900488944" value="" style="whiteSpace=wrap;rounded=0;fillColor=none;strokeColor=none;dashed=0;inherit=default;html=1;strokeWidth=0;" parent="1" vertex="1">
                    <mxGeometry y="120" as="geometry"/>
                </mxCell>
                <mxCell id="126189900489040" value="" style="whiteSpace=wrap;rounded=0;fillColor=none;strokeColor=none;dashed=0;inherit=default;html=1;strokeWidth=0;" parent="1" vertex="1">
                    <mxGeometry x="360" y="120" as="geometry"/>
                </mxCell>
                <mxCell id="126189900489184" style="edgeStyle=orthogonalEdgeStyle;orthogonalLoop=1;rounded=0;jettySize=auto;endArrow=none;" parent="1" source="126189900489040" target="126189900488944" edge="1">
                    <mxGeometry relative="1" as="geometry"/>
                </mxCell>
                <mxCell id="126189900490000" value="0" style="text;whiteSpace=wrap;rounded=0;dashed=0;inherit=default;" parent="1" vertex="1">
                    <mxGeometry x="-5" y="120" as="geometry"/>
                </mxCell>
                <mxCell id="126189900490192" value="1" style="text;whiteSpace=wrap;rounded=0;dashed=0;inherit=default;" parent="1" vertex="1">
                    <mxGeometry x="35" y="120" as="geometry"/>
                </mxCell>
                <mxCell id="126189900490384" value="2" style="text;whiteSpace=wrap;rounded=0;dashed=0;inherit=default;" parent="1" vertex="1">
                    <mxGeometry x="75" y="120" as="geometry"/>
                </mxCell>
                <mxCell id="126189900365744" value="3" style="text;whiteSpace=wrap;rounded=0;dashed=0;inherit=default;" parent="1" vertex="1">
                    <mxGeometry x="115" y="120" as="geometry"/>
                </mxCell>
                <mxCell id="126189900365600" value="4" style="text;whiteSpace=wrap;rounded=0;dashed=0;inherit=default;" parent="1" vertex="1">
                    <mxGeometry x="155" y="120" as="geometry"/>
                </mxCell>
                <mxCell id="126189900364496" value="5" style="text;whiteSpace=wrap;rounded=0;dashed=0;inherit=default;" parent="1" vertex="1">
                    <mxGeometry x="195" y="120" as="geometry"/>
                </mxCell>
                <mxCell id="126189900364064" value="6" style="text;whiteSpace=wrap;rounded=0;dashed=0;inherit=default;" parent="1" vertex="1">
                    <mxGeometry x="235" y="120" as="geometry"/>
                </mxCell>
                <mxCell id="126189900363776" value="7" style="text;whiteSpace=wrap;rounded=0;dashed=0;inherit=default;" parent="1" vertex="1">
                    <mxGeometry x="275" y="120" as="geometry"/>
                </mxCell>
                <mxCell id="126189900363104" value="8" style="text;whiteSpace=wrap;rounded=0;dashed=0;inherit=default;" parent="1" vertex="1">
                    <mxGeometry x="315" y="120" as="geometry"/>
                </mxCell>
                <mxCell id="126189900363008" value="9" style="text;whiteSpace=wrap;rounded=0;dashed=0;inherit=default;" parent="1" vertex="1">
                    <mxGeometry x="355" y="120" as="geometry"/>
                </mxCell>
                <mxCell id="126189900481264" value="$$\tau_2: T=0, C=[3,4]$$" style="text;whiteSpace=wrap;rounded=0;dashed=0;inherit=default;" parent="1" vertex="1">
                    <mxGeometry x="-160" y="95" width="120" height="40" as="geometry"/>
                </mxCell>
                <mxCell id="126189900490672" value="" style="whiteSpace=wrap;rounded=0;fillColor=#f8cecc;strokeColor=#b85450;dashed=0;inherit=default;html=1;strokeWidth=0;" parent="1" vertex="1">
                    <mxGeometry x="160" y="180" width="120" height="20" as="geometry"/>
                </mxCell>
                <mxCell id="126189900490864" value="" style="whiteSpace=wrap;rounded=0;fillColor=none;strokeColor=none;dashed=0;inherit=default;html=1;strokeWidth=0;" parent="1" vertex="1">
                    <mxGeometry x="160" y="160" as="geometry"/>
                </mxCell>
                <mxCell id="126189900491200" value="" style="whiteSpace=wrap;rounded=0;fillColor=none;strokeColor=none;dashed=0;inherit=default;html=1;strokeWidth=0;" parent="1" vertex="1">
                    <mxGeometry x="160" y="200" as="geometry"/>
                </mxCell>
                <mxCell id="126189900491344" style="edgeStyle=orthogonalEdgeStyle;orthogonalLoop=1;rounded=0;jettySize=auto;" parent="1" source="126189900491200" target="126189900490864" edge="1">
                    <mxGeometry relative="1" as="geometry"/>
                </mxCell>
                <mxCell id="126189900492016" value="" style="whiteSpace=wrap;rounded=0;fillColor=none;strokeColor=none;dashed=0;inherit=default;html=1;strokeWidth=0;" parent="1" vertex="1">
                    <mxGeometry y="200" as="geometry"/>
                </mxCell>
                <mxCell id="126189900492112" value="" style="whiteSpace=wrap;rounded=0;fillColor=none;strokeColor=none;dashed=0;inherit=default;html=1;strokeWidth=0;" parent="1" vertex="1">
                    <mxGeometry x="360" y="200" as="geometry"/>
                </mxCell>
                <mxCell id="126189900492256" style="edgeStyle=orthogonalEdgeStyle;orthogonalLoop=1;rounded=0;jettySize=auto;endArrow=none;" parent="1" source="126189900492112" target="126189900492016" edge="1">
                    <mxGeometry relative="1" as="geometry"/>
                </mxCell>
                <mxCell id="126189900493120" value="0" style="text;whiteSpace=wrap;rounded=0;dashed=0;inherit=default;" parent="1" vertex="1">
                    <mxGeometry x="-5" y="200" as="geometry"/>
                </mxCell>
                <mxCell id="126189900493312" value="1" style="text;whiteSpace=wrap;rounded=0;dashed=0;inherit=default;" parent="1" vertex="1">
                    <mxGeometry x="35" y="200" as="geometry"/>
                </mxCell>
                <mxCell id="126189900493504" value="2" style="text;whiteSpace=wrap;rounded=0;dashed=0;inherit=default;" parent="1" vertex="1">
                    <mxGeometry x="75" y="200" as="geometry"/>
                </mxCell>
                <mxCell id="126189900493696" value="3" style="text;whiteSpace=wrap;rounded=0;dashed=0;inherit=default;" parent="1" vertex="1">
                    <mxGeometry x="115" y="200" as="geometry"/>
                </mxCell>
                <mxCell id="126189900493888" value="4" style="text;whiteSpace=wrap;rounded=0;dashed=0;inherit=default;" parent="1" vertex="1">
                    <mxGeometry x="155" y="200" as="geometry"/>
                </mxCell>
                <mxCell id="126189900494080" value="5" style="text;whiteSpace=wrap;rounded=0;dashed=0;inherit=default;" parent="1" vertex="1">
                    <mxGeometry x="195" y="200" as="geometry"/>
                </mxCell>
                <mxCell id="126189900494272" value="6" style="text;whiteSpace=wrap;rounded=0;dashed=0;inherit=default;" parent="1" vertex="1">
                    <mxGeometry x="235" y="200" as="geometry"/>
                </mxCell>
                <mxCell id="126189900494464" value="7" style="text;whiteSpace=wrap;rounded=0;dashed=0;inherit=default;" parent="1" vertex="1">
                    <mxGeometry x="275" y="200" as="geometry"/>
                </mxCell>
                <mxCell id="126189900494656" value="8" style="text;whiteSpace=wrap;rounded=0;dashed=0;inherit=default;" parent="1" vertex="1">
                    <mxGeometry x="315" y="200" as="geometry"/>
                </mxCell>
                <mxCell id="126189900494848" value="9" style="text;whiteSpace=wrap;rounded=0;dashed=0;inherit=default;" parent="1" vertex="1">
                    <mxGeometry x="355" y="200" as="geometry"/>
                </mxCell>
                <mxCell id="126189900494992" value="$$\tau_3: T=0, C=[2,3]$$" style="text;whiteSpace=wrap;rounded=0;dashed=0;inherit=default;" parent="1" vertex="1">
                    <mxGeometry x="-160" y="175" width="120" height="40" as="geometry"/>
                </mxCell>
                <mxCell id="126189900495136" value="" style="whiteSpace=wrap;rounded=0;fillColor=#f8cecc;strokeColor=#b85450;dashed=0;inherit=default;html=1;strokeWidth=0;" parent="1" vertex="1">
                    <mxGeometry x="280" y="260" width="120" height="20" as="geometry"/>
                </mxCell>
                <mxCell id="126189900495328" value="" style="whiteSpace=wrap;rounded=0;fillColor=none;strokeColor=none;dashed=0;inherit=default;html=1;strokeWidth=0;" parent="1" vertex="1">
                    <mxGeometry x="40" y="240" as="geometry"/>
                </mxCell>
                <mxCell id="126189900495664" value="" style="whiteSpace=wrap;rounded=0;fillColor=none;strokeColor=none;dashed=0;inherit=default;html=1;strokeWidth=0;" parent="1" vertex="1">
                    <mxGeometry x="40" y="280" as="geometry"/>
                </mxCell>
                <mxCell id="126189900495808" style="edgeStyle=orthogonalEdgeStyle;orthogonalLoop=1;rounded=0;jettySize=auto;" parent="1" source="126189900495664" target="126189900495328" edge="1">
                    <mxGeometry relative="1" as="geometry"/>
                </mxCell>
                <mxCell id="126189900496432" value="" style="whiteSpace=wrap;rounded=0;fillColor=none;strokeColor=none;dashed=0;inherit=default;html=1;strokeWidth=0;" parent="1" vertex="1">
                    <mxGeometry y="280" as="geometry"/>
                </mxCell>
                <mxCell id="126189900496528" value="" style="whiteSpace=wrap;rounded=0;fillColor=none;strokeColor=none;dashed=0;inherit=default;html=1;strokeWidth=0;" parent="1" vertex="1">
                    <mxGeometry x="360" y="280" as="geometry"/>
                </mxCell>
                <mxCell id="126189900496672" style="edgeStyle=orthogonalEdgeStyle;orthogonalLoop=1;rounded=0;jettySize=auto;endArrow=none;" parent="1" source="126189900496528" target="126189900496432" edge="1">
                    <mxGeometry relative="1" as="geometry"/>
                </mxCell>
                <mxCell id="126189900628672" value="0" style="text;whiteSpace=wrap;rounded=0;dashed=0;inherit=default;" parent="1" vertex="1">
                    <mxGeometry x="-5" y="280" as="geometry"/>
                </mxCell>
                <mxCell id="126189900628864" value="1" style="text;whiteSpace=wrap;rounded=0;dashed=0;inherit=default;" parent="1" vertex="1">
                    <mxGeometry x="35" y="280" as="geometry"/>
                </mxCell>
                <mxCell id="126189900629056" value="2" style="text;whiteSpace=wrap;rounded=0;dashed=0;inherit=default;" parent="1" vertex="1">
                    <mxGeometry x="75" y="280" as="geometry"/>
                </mxCell>
                <mxCell id="126189900629248" value="3" style="text;whiteSpace=wrap;rounded=0;dashed=0;inherit=default;" parent="1" vertex="1">
                    <mxGeometry x="115" y="280" as="geometry"/>
                </mxCell>
                <mxCell id="126189900629440" value="4" style="text;whiteSpace=wrap;rounded=0;dashed=0;inherit=default;" parent="1" vertex="1">
                    <mxGeometry x="155" y="280" as="geometry"/>
                </mxCell>
                <mxCell id="126189900629632" value="5" style="text;whiteSpace=wrap;rounded=0;dashed=0;inherit=default;" parent="1" vertex="1">
                    <mxGeometry x="195" y="280" as="geometry"/>
                </mxCell>
                <mxCell id="126189900629824" value="6" style="text;whiteSpace=wrap;rounded=0;dashed=0;inherit=default;" parent="1" vertex="1">
                    <mxGeometry x="235" y="280" as="geometry"/>
                </mxCell>
                <mxCell id="126189900630016" value="7" style="text;whiteSpace=wrap;rounded=0;dashed=0;inherit=default;" parent="1" vertex="1">
                    <mxGeometry x="275" y="280" as="geometry"/>
                </mxCell>
                <mxCell id="126189900630208" value="8" style="text;whiteSpace=wrap;rounded=0;dashed=0;inherit=default;" parent="1" vertex="1">
                    <mxGeometry x="315" y="280" as="geometry"/>
                </mxCell>
                <mxCell id="126189900630400" value="9" style="text;whiteSpace=wrap;rounded=0;dashed=0;inherit=default;" parent="1" vertex="1">
                    <mxGeometry x="355" y="280" as="geometry"/>
                </mxCell>
                <mxCell id="126189900630544" value="$$\tau_4: T=0, C=[2,3]$$" style="text;whiteSpace=wrap;rounded=0;dashed=0;inherit=default;" parent="1" vertex="1">
                    <mxGeometry x="-160" y="255" width="120" height="40" as="geometry"/>
                </mxCell>
                <mxCell id="126189900630736" value="" style="whiteSpace=wrap;rounded=0;fillColor=#dae8fc;strokeColor=#6c8ebf;dashed=0;inherit=default;html=1;strokeWidth=0;" parent="1" vertex="1">
                    <mxGeometry x="120" y="340" width="200" height="20" as="geometry"/>
                </mxCell>
                <mxCell id="126189900630880" value="" style="whiteSpace=wrap;rounded=0;fillColor=none;strokeColor=none;dashed=0;inherit=default;html=1;strokeWidth=0;" parent="1" vertex="1">
                    <mxGeometry y="320" as="geometry"/>
                </mxCell>
                <mxCell id="126189900631216" value="" style="whiteSpace=wrap;rounded=0;fillColor=none;strokeColor=none;dashed=0;inherit=default;html=1;strokeWidth=0;" parent="1" vertex="1">
                    <mxGeometry y="360" as="geometry"/>
                </mxCell>
                <mxCell id="126189900631360" style="edgeStyle=orthogonalEdgeStyle;orthogonalLoop=1;rounded=0;jettySize=auto;" parent="1" source="126189900631216" target="126189900630880" edge="1">
                    <mxGeometry relative="1" as="geometry"/>
                </mxCell>
                <mxCell id="126189900632032" value="" style="whiteSpace=wrap;rounded=0;fillColor=none;strokeColor=none;dashed=0;inherit=default;html=1;strokeWidth=0;" parent="1" vertex="1">
                    <mxGeometry y="360" as="geometry"/>
                </mxCell>
                <mxCell id="126189900632128" value="" style="whiteSpace=wrap;rounded=0;fillColor=none;strokeColor=none;dashed=0;inherit=default;html=1;strokeWidth=0;" parent="1" vertex="1">
                    <mxGeometry x="360" y="360" as="geometry"/>
                </mxCell>
                <mxCell id="126189900632272" style="edgeStyle=orthogonalEdgeStyle;orthogonalLoop=1;rounded=0;jettySize=auto;endArrow=none;" parent="1" source="126189900632128" target="126189900632032" edge="1">
                    <mxGeometry relative="1" as="geometry"/>
                </mxCell>
                <mxCell id="126189900633136" value="0" style="text;whiteSpace=wrap;rounded=0;dashed=0;inherit=default;" parent="1" vertex="1">
                    <mxGeometry x="-5" y="360" as="geometry"/>
                </mxCell>
                <mxCell id="126189900633328" value="1" style="text;whiteSpace=wrap;rounded=0;dashed=0;inherit=default;" parent="1" vertex="1">
                    <mxGeometry x="35" y="360" as="geometry"/>
                </mxCell>
                <mxCell id="126189900633520" value="2" style="text;whiteSpace=wrap;rounded=0;dashed=0;inherit=default;" parent="1" vertex="1">
                    <mxGeometry x="75" y="360" as="geometry"/>
                </mxCell>
                <mxCell id="126189900633712" value="3" style="text;whiteSpace=wrap;rounded=0;dashed=0;inherit=default;" parent="1" vertex="1">
                    <mxGeometry x="115" y="360" as="geometry"/>
                </mxCell>
                <mxCell id="126189900633904" value="4" style="text;whiteSpace=wrap;rounded=0;dashed=0;inherit=default;" parent="1" vertex="1">
                    <mxGeometry x="155" y="360" as="geometry"/>
                </mxCell>
                <mxCell id="126189900634096" value="5" style="text;whiteSpace=wrap;rounded=0;dashed=0;inherit=default;" parent="1" vertex="1">
                    <mxGeometry x="195" y="360" as="geometry"/>
                </mxCell>
                <mxCell id="126189900634288" value="6" style="text;whiteSpace=wrap;rounded=0;dashed=0;inherit=default;" parent="1" vertex="1">
                    <mxGeometry x="235" y="360" as="geometry"/>
                </mxCell>
                <mxCell id="126189900634480" value="7" style="text;whiteSpace=wrap;rounded=0;dashed=0;inherit=default;" parent="1" vertex="1">
                    <mxGeometry x="275" y="360" as="geometry"/>
                </mxCell>
                <mxCell id="126189900634672" value="8" style="text;whiteSpace=wrap;rounded=0;dashed=0;inherit=default;" parent="1" vertex="1">
                    <mxGeometry x="315" y="360" as="geometry"/>
                </mxCell>
                <mxCell id="126189900634864" value="9" style="text;whiteSpace=wrap;rounded=0;dashed=0;inherit=default;" parent="1" vertex="1">
                    <mxGeometry x="355" y="360" as="geometry"/>
                </mxCell>
                <mxCell id="126189900635008" value="$$\tau_5: T=0, C=[4,5]$$" style="text;whiteSpace=wrap;rounded=0;dashed=0;inherit=default;" parent="1" vertex="1">
                    <mxGeometry x="-160" y="335" width="120" height="40" as="geometry"/>
                </mxCell>
            </root>
        </mxGraphModel>
    </diagram>
</mxfile>